<?xml version="1.0" standalone="no"?>
<!DOCTYPE svg PUBLIC "-//W3C//DTD SVG 20010904//EN"
 "http://www.w3.org/TR/2001/REC-SVG-20010904/DTD/svg10.dtd">
<svg version="1.0" xmlns="http://www.w3.org/2000/svg"
 width="738.000000pt" height="447.000000pt" viewBox="0 0 738.000000 447.000000"
 preserveAspectRatio="xMidYMid meet">

<g transform="translate(0.000000,447.000000) scale(0.100000,-0.100000)"
fill="#FFFFFF" stroke="none">
<path d="M3655 4244 c-34 -36 -98 -164 -134 -267 -55 -156 -72 -262 -78 -477
l-5 -195 -40 -63 c-47 -75 -92 -186 -112 -273 -19 -81 -25 -191 -11 -196 6 -2
35 18 65 43 57 49 153 114 167 114 5 0 17 -14 27 -32 11 -17 35 -49 54 -70 33
-37 36 -38 102 -38 66 0 69 1 102 38 19 21 43 53 54 70 10 18 23 32 29 32 14
0 112 -68 178 -123 65 -54 74 -44 60 65 -16 118 -65 262 -122 356 l-48 81 -6
193 c-6 206 -22 312 -73 464 -47 141 -140 304 -174 304 -6 0 -22 -12 -35 -26z
m85 -689 c40 -21 60 -53 60 -98 0 -56 -52 -107 -108 -107 -110 0 -151 144 -58
201 37 23 67 24 106 4z"/>
<path d="M1160 1900 l0 -740 85 0 85 0 0 313 c0 306 1 313 24 362 97 210 403
183 465 -40 7 -25 11 -151 11 -337 l0 -298 85 0 85 0 0 313 c0 330 -4 368 -49
455 -29 57 -91 123 -149 161 -72 46 -150 64 -251 59 -83 -4 -106 -11 -213 -66
-5 -2 -8 123 -8 277 l0 281 -85 0 -85 0 0 -740z"/>
<path d="M2238 2501 c-87 -78 4 -216 112 -171 38 16 60 51 60 95 0 47 -14 71
-50 90 -45 23 -85 19 -122 -14z"/>
<path d="M408 2135 c-221 -61 -372 -260 -372 -490 1 -231 147 -422 373 -489
111 -33 270 -15 375 42 55 30 166 127 166 146 0 6 -30 32 -66 58 l-65 47 -41
-41 c-22 -22 -65 -52 -97 -67 -47 -22 -70 -26 -141 -26 -73 0 -93 4 -141 28
-63 30 -125 92 -161 159 -20 37 -23 58 -23 143 0 85 3 106 23 143 36 67 98
129 161 159 49 24 68 28 146 28 78 0 97 -4 141 -27 29 -15 68 -43 88 -61 l36
-35 65 50 c36 28 65 54 65 58 0 16 -114 112 -159 134 -108 55 -262 72 -373 41z"/>
<path d="M2960 2131 c-91 -29 -142 -61 -211 -130 -200 -202 -200 -511 0 -712
111 -111 230 -155 391 -147 96 6 173 31 250 83 l50 34 0 -50 0 -49 90 0 90 0
0 485 0 485 -90 0 -90 0 0 -51 0 -51 -29 25 c-39 32 -108 65 -174 83 -73 19
-209 17 -277 -5z m293 -185 c248 -121 247 -481 -1 -603 -50 -25 -68 -28 -147
-28 -78 1 -97 4 -143 28 -70 37 -128 97 -160 166 -36 76 -38 193 -5 264 44 96
110 156 211 194 60 22 179 12 245 -21z"/>
<path d="M4135 2137 c-22 -8 -59 -24 -82 -36 l-43 -21 0 25 c0 25 0 25 -90 25
l-90 0 0 -485 0 -485 90 0 90 0 0 315 c0 245 3 323 14 349 21 51 76 107 131
132 91 43 187 27 265 -43 82 -74 84 -82 88 -440 l4 -313 84 0 84 0 0 299 c0
164 -5 323 -10 352 -24 129 -107 237 -227 296 -69 34 -84 38 -172 40 -60 2
-111 -2 -136 -10z"/>
<path d="M5210 2124 c-184 -63 -315 -222 -339 -413 -38 -304 195 -571 499
-571 86 0 168 19 239 55 53 27 171 130 171 149 0 7 -30 33 -67 59 l-67 47 -27
-33 c-15 -19 -56 -49 -91 -68 -58 -31 -70 -34 -153 -34 -80 0 -96 3 -148 29
-68 35 -131 99 -160 164 -31 71 -35 182 -7 254 28 75 96 150 168 185 50 24 69
28 147 28 79 0 97 -4 142 -28 29 -15 68 -40 86 -57 19 -16 38 -30 42 -30 11 0
125 90 125 99 0 17 -109 110 -156 134 -127 64 -273 76 -404 31z"/>
<path d="M6327 2135 c-83 -23 -160 -68 -223 -131 -237 -236 -185 -627 106
-801 19 -12 68 -31 109 -43 61 -19 89 -22 170 -18 108 6 173 27 258 83 l53 35
0 -50 0 -50 85 0 85 0 0 485 0 485 -85 0 -85 0 0 -50 0 -50 -62 40 c-87 56
-170 80 -277 79 -47 0 -108 -7 -134 -14z m281 -189 c70 -35 128 -95 160 -165
38 -82 38 -193 -1 -273 -36 -74 -96 -134 -165 -166 -48 -23 -71 -27 -142 -27
-73 0 -93 4 -141 28 -63 30 -125 92 -161 159 -20 37 -23 58 -23 143 0 112 14
151 81 225 72 80 151 112 264 107 57 -3 87 -10 128 -31z"/>
<path d="M2220 1645 l0 -485 85 0 85 0 0 485 0 485 -85 0 -85 0 0 -485z"/>
<path d="M7195 1329 c-35 -20 -55 -53 -55 -92 0 -49 13 -73 50 -92 45 -23 85
-19 122 14 28 25 33 36 33 75 0 36 -6 51 -26 72 -30 29 -93 41 -124 23z"/>
<path d="M1533 615 c-18 -8 -42 -29 -53 -47 -47 -78 -10 -144 99 -175 73 -21
97 -46 67 -69 -29 -21 -82 -18 -106 6 -19 19 -22 19 -56 5 -35 -14 -36 -16
-22 -37 52 -78 170 -91 243 -27 39 35 52 78 35 120 -14 34 -40 49 -121 73 -84
24 -104 63 -43 86 21 8 35 7 65 -8 37 -19 38 -19 65 3 26 20 26 22 8 39 -43
44 -121 57 -181 31z"/>
<path d="M2044 620 c-40 -13 -100 -74 -115 -117 -17 -53 -7 -145 21 -185 81
-119 239 -115 315 7 77 125 -2 292 -144 301 -25 2 -60 -1 -77 -6z m132 -104
c30 -30 34 -40 34 -86 0 -43 -4 -56 -29 -80 -36 -36 -73 -46 -112 -29 -84 34
-91 170 -11 213 45 25 80 20 118 -18z"/>
<path d="M5600 619 c-67 -27 -101 -94 -76 -152 17 -41 36 -53 120 -76 63 -17
80 -37 56 -66 -19 -22 -80 -19 -106 6 -21 19 -24 20 -53 5 -37 -19 -38 -25
-10 -55 48 -51 125 -64 195 -32 52 23 74 55 74 103 0 54 -32 85 -105 104 -77
20 -95 30 -95 53 0 42 72 60 108 28 16 -15 20 -14 50 5 32 20 32 21 15 41 -38
42 -117 58 -173 36z"/>
<path d="M2470 430 l0 -190 45 0 45 0 0 80 0 79 68 3 67 3 3 38 3 37 -70 0
-71 0 0 35 0 35 75 0 75 0 0 35 0 35 -120 0 -120 0 0 -190z"/>
<path d="M2870 585 c0 -35 0 -35 45 -35 l45 0 0 -155 0 -155 45 0 45 0 0 155
0 155 50 0 50 0 0 35 0 35 -140 0 -140 0 0 -35z"/>
<path d="M3300 618 c0 -2 24 -86 53 -188 l52 -185 52 -3 52 -3 31 103 c47 157
47 155 54 138 3 -8 21 -64 39 -125 l34 -110 53 0 53 0 33 118 c18 65 42 149
53 188 l19 69 -42 0 -43 0 -33 -127 c-18 -71 -35 -134 -39 -141 -7 -13 -12 -1
-66 181 l-27 88 -41 -3 -41 -3 -41 -139 c-23 -77 -44 -135 -47 -130 -3 5 -20
69 -39 142 l-34 132 -42 0 c-24 0 -43 -1 -43 -2z"/>
<path d="M4081 443 c-40 -98 -76 -184 -78 -190 -4 -9 8 -13 39 -13 43 0 46 2
61 40 l15 40 84 0 83 0 17 -40 c15 -37 19 -40 57 -40 23 0 41 4 41 8 0 5 -32
85 -71 178 -39 93 -73 175 -76 182 -3 7 -24 12 -52 12 l-47 0 -73 -177z m165
-40 c-2 -2 -24 -3 -48 -1 l-45 3 25 55 24 55 24 -54 c13 -30 22 -56 20 -58z"/>
<path d="M4580 430 l0 -190 40 0 40 0 0 75 c0 68 2 75 20 75 12 0 40 -27 77
-75 58 -75 58 -75 106 -75 l48 0 -62 80 -62 80 26 20 c56 44 56 136 0 180 -22
17 -41 20 -129 20 l-104 0 0 -190z m180 106 c6 -8 10 -25 8 -38 -3 -20 -9 -23
-55 -26 l-53 -3 0 40 0 41 44 0 c26 0 48 -6 56 -14z"/>
<path d="M5090 430 l0 -190 120 0 120 0 0 35 0 35 -80 0 -80 0 0 45 0 45 70 0
70 0 0 40 0 40 -70 0 -70 0 0 35 0 35 80 0 80 0 0 35 0 35 -120 0 -120 0 0
-190z"/>
</g>
</svg>
